<svg width="422" height="422" viewBox="0 0 422 422" fill="none" xmlns="http://www.w3.org/2000/svg">
<path fill-rule="evenodd" clip-rule="evenodd" d="M301.372 56.5C265.943 56.5 236.99 85.3552 236.99 120.91V185.292H301.4C336.739 185.292 365.5 156.555 365.5 120.939V120.854C365.5 85.2378 336.739 56.5 301.4 56.5H301.372ZM236.99 236.792H301.4C365.318 236.792 417 184.86 417 120.939V120.854C417 56.932 365.318 5 301.4 5H301.372C237.542 5 185.49 56.8711 185.49 120.91V185.292H120.601C56.8229 185.292 5.18136 237.039 5.00047 300.819C4.81958 364.854 56.5694 417 120.601 417H121.023C158.466 417 191.714 399.136 212.782 371.629C221.43 360.339 219.288 344.176 207.998 335.529C196.708 326.881 180.545 329.023 171.898 340.313C160.125 355.683 141.715 365.5 121.023 365.5H120.601C85.2051 365.5 56.3995 336.637 56.5003 300.965C56.601 265.433 85.3459 236.792 120.601 236.792H185.49V271.46C185.49 285.681 197.018 297.21 211.24 297.21C225.461 297.21 236.99 285.681 236.99 271.46V236.792Z" fill="url(#paint0_linear_1_26)"/>
<path fill-rule="evenodd" clip-rule="evenodd" d="M211.297 95.125C225.518 95.149 237.027 106.697 237.003 120.918L236.75 271.468C236.726 285.689 225.178 297.199 210.957 297.175C196.735 297.151 185.226 285.603 185.25 271.381L185.504 120.832C185.527 106.61 197.076 95.1011 211.297 95.125Z" fill="url(#paint1_linear_1_26)"/>
<defs>
<linearGradient id="paint0_linear_1_26" x1="211" y1="53.2812" x2="211" y2="391.25" gradientUnits="userSpaceOnUse">
<stop stop-color="#534EFC"/>
<stop offset="0.482325" stop-color="#6359F9"/>
<stop offset="1" stop-color="#0EF50D"/>
</linearGradient>
<linearGradient id="paint1_linear_1_26" x1="210.761" y1="95.0873" x2="210.761" y2="294.65" gradientUnits="userSpaceOnUse">
<stop stop-color="#5952FC"/>
<stop offset="1" stop-color="#413BEB"/>
</linearGradient>
</defs>
</svg>
