<svg width="1748" height="422" viewBox="0 0 1748 422" fill="none" xmlns="http://www.w3.org/2000/svg">
<path fill-rule="evenodd" clip-rule="evenodd" d="M301.202 56.5C265.794 56.5 236.857 85.3552 236.857 120.91V185.292H301.23C336.549 185.292 365.294 156.555 365.294 120.939V120.854C365.294 85.2378 336.549 56.5 301.23 56.5H301.202ZM236.857 236.792H301.23C365.112 236.792 416.765 184.86 416.765 120.939V120.854C416.765 56.932 365.112 5 301.23 5H301.202C237.409 5 185.387 56.8711 185.387 120.91V185.292H120.535C56.7933 185.292 5.18126 237.039 5.00047 300.819C4.81968 364.854 56.54 417 120.535 417H120.957C158.379 417 191.607 399.136 212.664 371.629C221.306 360.339 219.166 344.176 207.882 335.529C196.598 326.881 180.445 329.023 171.802 340.313C160.036 355.683 141.637 365.5 120.957 365.5H120.535C85.1593 365.5 56.3701 336.637 56.4708 300.965C56.5716 265.433 85.3 236.792 120.535 236.792H185.387V271.46C185.387 285.681 196.909 297.21 211.122 297.21C225.335 297.21 236.857 285.681 236.857 271.46V236.792Z" fill="url(#paint0_linear_1_11)"/>
<path fill-rule="evenodd" clip-rule="evenodd" d="M211.179 95.125C225.392 95.149 236.895 106.697 236.871 120.918L236.618 271.468C236.594 285.689 225.052 297.199 210.839 297.175C196.626 297.151 185.123 285.603 185.147 271.381L185.4 120.832C185.424 106.61 196.966 95.1011 211.179 95.125Z" fill="url(#paint1_linear_1_11)"/>
<path d="M684.235 263.988C675.779 281.414 659.289 298.84 634.344 298.84C588.681 298.84 568.81 267.388 568.81 224.459C568.81 181.531 588.681 149.653 634.344 149.653C658.021 149.653 676.201 166.23 684.235 184.931L725.246 161.554C703.684 125.851 673.665 108 634.344 108C599.674 108 571.769 119.051 551.052 141.153C530.335 162.829 519.765 190.882 519.765 224.459C519.765 256.337 530.757 283.964 553.166 306.491C575.575 329.018 602.634 340.494 634.344 340.494C674.933 340.494 705.375 322.217 725.246 285.239L684.235 263.988Z" fill="black"/>
<path d="M864.196 108C842.211 108 821.493 117.776 802.044 137.752L791.897 111.825H746.235V336.668H791.897V249.111C791.897 212.558 798.662 186.631 812.192 171.33C825.721 155.604 843.056 147.953 864.196 147.953C871.384 147.953 876.88 148.378 880.686 149.653V109.7C873.921 108.425 868.424 108 864.196 108Z" fill="black"/>
<path d="M1091.59 220.209C1090.33 186.631 1080.18 159.429 1061.15 139.028C1042.13 118.201 1016.76 108 985.048 108C951.647 108 924.588 119.051 904.293 140.728C884.421 162.404 874.274 190.457 874.274 224.459C874.274 260.162 883.999 288.64 903.87 309.466C923.742 330.293 950.801 340.494 985.048 340.494C1027.33 340.494 1063.69 319.242 1081.87 288.215L1047.62 267.813C1035.36 288.64 1014.64 299.265 985.048 299.265C944.459 299.265 923.742 280.564 919.091 241.461H1091.59V220.209ZM920.36 200.232C927.547 166.655 952.493 147.953 985.048 147.953C1018.87 147.953 1044.24 167.93 1049.74 200.232H920.36Z" fill="black"/>
<path d="M1220.52 340.494C1283.94 340.494 1329.18 291.19 1329.18 224.884C1329.18 162.404 1283.94 108 1220.52 108C1193.89 108 1171.9 118.201 1155.83 134.352L1148.65 111.825H1115.24V413.175H1148.65V305.216C1163.44 325.618 1186.7 340.494 1220.52 340.494ZM1221.37 138.602C1265.76 138.602 1295.78 181.106 1295.78 224.884C1295.78 268.238 1265.76 309.891 1221.37 309.891C1176.97 309.891 1146.53 266.963 1146.53 224.884C1146.53 173.88 1176.55 138.602 1221.37 138.602Z" fill="black"/>
<path d="M1526.3 330.718C1522.07 330.718 1519.96 325.618 1519.96 320.517V190.457C1519.96 141.578 1495.86 108 1437.51 108C1380.85 108 1356.33 143.703 1356.33 143.703L1380.85 166.655C1401.99 139.453 1432.86 138.602 1438.78 138.602C1464.57 138.602 1487.4 150.078 1487.4 175.155C1487.4 200.232 1449.35 203.208 1431.59 203.208C1364.36 203.208 1342.8 237.635 1342.8 269.088C1342.8 311.591 1370.28 340.494 1421.02 340.494C1454.84 340.494 1475.56 324.342 1486.98 312.442V317.117C1486.98 330.293 1492.9 336.668 1500.93 336.668H1526.3V330.718ZM1487.4 231.26C1487.4 265.688 1484.86 311.166 1422.29 311.166C1397.34 311.166 1381.28 294.59 1381.28 272.488C1381.28 256.762 1382.12 231.685 1435.82 231.685C1451.88 231.685 1478.52 228.285 1487.4 213.409C1487.4 213.409 1487.4 226.585 1487.4 231.26Z" fill="black"/>
<path d="M1742.19 111.825H1705.83L1632.26 292.89L1561.23 111.825H1524.45L1616.2 334.968C1600.98 375.347 1592.1 386.398 1549.82 386.398V417C1593.36 417 1615.77 414.025 1647.91 336.668L1742.19 111.825Z" fill="black"/>
<defs>
<linearGradient id="paint0_linear_1_11" x1="210.882" y1="53.2812" x2="210.882" y2="391.25" gradientUnits="userSpaceOnUse">
<stop stop-color="#534EFC"/>
<stop offset="0.482325" stop-color="#6359F9"/>
<stop offset="1" stop-color="#0EF50D"/>
</linearGradient>
<linearGradient id="paint1_linear_1_11" x1="210.644" y1="95.0873" x2="210.644" y2="294.65" gradientUnits="userSpaceOnUse">
<stop stop-color="#5952FC"/>
<stop offset="1" stop-color="#413BEB"/>
</linearGradient>
</defs>
</svg>
